<svg width="1024" height="1024" viewBox="0 0 1024 1024" fill="none" xmlns="http://www.w3.org/2000/svg">
  <defs>
    <linearGradient id="grad" x1="0" y1="0" x2="1024" y2="1024" gradientUnits="userSpaceOnUse">
      <stop stop-color="#FF8C5A"/>
      <stop offset="1" stop-color="#E84B1F"/>
    </linearGradient>
    <linearGradient id="hl" x1="0" y1="0" x2="0" y2="1024" gradientUnits="userSpaceOnUse">
      <stop stop-color="white" stop-opacity="0.18"/>
      <stop offset="0.6" stop-color="white" stop-opacity="0"/>
    </linearGradient>
    <clipPath id="squircle">
      <path d="M0.000976562 373.001V651.001C0.000976562 665.251 -0.00894336 679.491 0.0810547 693.73C0.151055 705.72 0.280352 717.721 0.610352 729.711C1.32035 755.851 2.85099 782.211 7.50098 808.051C12.2109 834.271 19.9104 858.67 32.0303 882.49C43.9502 905.9 59.5307 927.32 78.1006 945.9C96.6706 964.48 118.101 980.051 141.511 991.971C165.331 1004.1 189.73 1011.79 215.95 1016.5C241.8 1021.14 268.161 1022.68 294.291 1023.39C306.281 1023.71 318.271 1023.85 330.271 1023.92C342.739 1023.99 355.201 1024 367.661 1024H654.054C667.285 1024 680.508 1024 693.73 1023.92C705.72 1023.85 717.721 1023.72 729.711 1023.39C755.851 1022.68 782.211 1021.15 808.051 1016.5C834.271 1011.79 858.67 1004.09 882.49 991.971C905.9 980.051 927.32 964.47 945.9 945.9C964.48 927.33 980.051 905.9 991.971 882.49C1004.1 858.67 1011.79 834.271 1016.5 808.051C1021.14 782.201 1022.68 755.841 1023.39 729.711C1023.71 717.721 1023.85 705.73 1023.92 693.73C1023.99 681.262 1024 668.801 1024 656.341V369.948C1024 356.717 1024 343.494 1023.92 330.271C1023.85 318.281 1023.72 306.281 1023.39 294.291C1022.68 268.151 1021.15 241.79 1016.5 215.95C1011.79 189.73 1004.09 165.331 991.971 141.511C980.051 118.101 964.47 96.6806 945.9 78.1006C927.33 59.5207 905.9 43.9502 882.49 32.0303C858.67 19.9004 834.271 12.2109 808.051 7.50098C782.201 2.86099 755.841 1.32035 729.711 0.610352C717.721 0.290352 705.73 0.151055 693.73 0.0810547C679.481 0.00105635 665.241 0.000976563 651.001 0.000976562H373.001C358.761 0.000976562 344.521 0.00105469 330.271 0.0810547C318.281 0.151054 306.281 0.28036 294.291 0.610352C268.151 1.32035 241.79 2.85098 215.95 7.50098C189.73 12.211 165.331 19.9104 141.511 32.0303C118.101 43.9503 96.6806 59.5306 78.1006 78.1006C59.5206 96.6706 43.9503 118.101 32.0303 141.511C19.9004 165.331 12.211 189.73 7.50098 215.95C2.86098 241.8 1.32035 268.161 0.610352 294.291C0.29036 306.281 0.151054 318.271 0.0810547 330.271C0.00105469 344.521 0.000976562 358.761 0.000976562 373.001Z"/>
    </clipPath>
  </defs>
  <g clip-path="url(#squircle)">
    <rect width="1024" height="1024" fill="url(#grad)"/>
    <rect width="1024" height="1024" fill="url(#hl)"/>
  </g>
  <g fill="white">
    <path d="M421.661 226H281.216C250.721 226 226 250.721 226 281.216V421.661C226 452.156 250.721 476.877 281.216 476.877H421.661C452.156 476.877 476.877 452.156 476.877 421.661V281.216C476.877 250.721 452.156 226 421.661 226Z"/>
    <path d="M742.784 226H602.339C571.844 226 547.123 250.721 547.123 281.216V421.661C547.123 452.156 571.844 476.877 602.339 476.877H742.784C773.279 476.877 798 452.156 798 421.661V281.216C798 250.721 773.279 226 742.784 226Z"/>
    <path d="M421.661 547.123H281.216C250.721 547.123 226 571.844 226 602.339V742.784C226 773.279 250.721 798 281.216 798H421.661C452.156 798 476.877 773.279 476.877 742.784V602.339C476.877 571.844 452.156 547.123 421.661 547.123Z"/>
    <path d="M742.784 547.123H602.339C571.844 547.123 547.123 571.844 547.123 602.339V742.784C547.123 773.279 571.844 798 602.339 798H742.784C773.279 798 798 773.279 798 742.784V602.339C798 571.844 773.279 547.123 742.784 547.123Z"/>
  </g>
</svg>
